<svg xmlns="http://www.w3.org/2000/svg" width="37.618" height="48.424" viewBox="0 0 37.618 48.424">
  <path id="Tracciato_30" data-name="Tracciato 30" d="M7.34,35.63H13v9.685H7.34Zm7.187,0h5.658v9.685H14.527ZM3.211,27.525H8.1v4.893H3.211Zm8.1,0h4.893v4.893H11.315Zm8.106,0h4.893v4.893H19.421Zm-16.21-8.1H8.1v4.893H3.211Zm8.1,0h4.893v4.893H11.315Zm8.106,0h4.893v4.893H19.421ZM3.211,11.316H8.1v4.893H3.211Zm8.1,0h4.893v4.893H11.315Zm8.106,0h4.893v4.893H19.421Zm-16.21-8.1H8.1V8.1H3.211Zm8.1,0h4.893V8.1H11.315Zm8.106,0h4.893V8.1H19.421ZM0,0V48.424H27.525l10.093-2.141V9.379L27.525,0Z" fill="red"/>
</svg>
