<svg xmlns="http://www.w3.org/2000/svg" xmlns:xlink="http://www.w3.org/1999/xlink" width="110.602" height="154.456" viewBox="0 0 110.602 154.456">
  <defs>
    <clipPath id="clip-path">
      <rect id="Rettangolo_33" data-name="Rettangolo 33" width="110.602" height="154.456" fill="red"/>
    </clipPath>
  </defs>
  <g id="Raggruppa_61" data-name="Raggruppa 61" transform="translate(0 0)">
    <g id="Raggruppa_60" data-name="Raggruppa 60" transform="translate(0 0)" clip-path="url(#clip-path)">
      <path id="Tracciato_86" data-name="Tracciato 86" d="M53.578,33.081a15.212,15.212,0,0,0-10.422,4.091A15.32,15.32,0,0,0,21.9,59.232L42.966,80.3l.188-.187.19.192L64.414,59.235A15.321,15.321,0,0,0,53.578,33.081M62.7,48.4a9.059,9.059,0,0,1-2.67,6.448L43.348,71.529l-.188-.188-.192.19L26.287,54.849a9.119,9.119,0,1,1,12.9-12.895l3.972,3.97,3.975-3.972A9.119,9.119,0,0,1,62.7,48.4" transform="translate(12.143 23.068)" fill="red"/>
      <path id="Tracciato_87" data-name="Tracciato 87" d="M12.693,36.632c5.98,6.258,11.471,10.1,17.277,12.1a21.146,21.146,0,0,0,7.024,1.21c3.717,0,7.01-.956,10.552-1.984,1.034-.3,2.093-.609,3.2-.9,4.771-1.246,10.159-1.141,15.436-1.037,1.076.022,2.132.042,3.159.051,1.607.046,7.584-.241,7.742-.253a8.965,8.965,0,0,0,3.787-.85L93.14,57.243a10.723,10.723,0,0,0,7.531,3.13,9.842,9.842,0,0,0,6.275-2.217,10.1,10.1,0,0,0,.713-14.9L78.8,14.4a8.28,8.28,0,0,0-1.6-1.229,3.089,3.089,0,0,0-2.308-1.45,26.527,26.527,0,0,0-2.848-.105H40.327a25.954,25.954,0,0,0-2.889.117L23.559,1.1a5.386,5.386,0,0,0-7.339.759L1.3,19.226a5.387,5.387,0,0,0,.45,7.482Zm59.533-18.82a2.715,2.715,0,0,1,2.191.971l28.858,28.858a3.883,3.883,0,0,1,1.122,2.93,3.842,3.842,0,0,1-1.4,2.809,4.124,4.124,0,0,1-5.471-.521L85.336,40.67a9.128,9.128,0,0,0,.993-4.1,9.267,9.267,0,0,0-9.251-9.262H50.851A3.111,3.111,0,0,0,45.8,29.751a5.775,5.775,0,0,0,.173,1.368,3.091,3.091,0,0,0,3.018,2.388H77.08a3.058,3.058,0,0,1,3.048,3.062,3.024,3.024,0,0,1-.9,2.151,3.135,3.135,0,0,1-2.283.9c-1.762.076-6.46.251-7.555.251-1.007-.008-2.039-.029-3.118-.049-5.377-.11-11.484-.227-17.1,1.236-1.178.309-2.308.637-3.41.957-4.927,1.433-8.819,2.566-13.774.852-4.853-1.667-9.583-5.034-14.887-10.6L6.538,22.649,20.427,6.513l14.3,10.95a3.077,3.077,0,0,0,2.588.562,14.077,14.077,0,0,1,3.011-.209H71.214Z" transform="translate(0.002 0.001)" fill="red"/>
      <path id="Tracciato_88" data-name="Tracciato 88" d="M97.927,79.191c-5.983-6.272-11.481-10.123-17.3-12.121-6.8-2.353-12.009-.84-17.52.759-1.051.307-2.13.62-3.25.913-4.8,1.254-10.211,1.142-15.436,1.035-1.078-.02-2.134-.041-3.169-.049-1.553,0-7.743.251-7.733.253a8.948,8.948,0,0,0-3.785.852L17.461,58.558a10.367,10.367,0,0,0-13.808-.913,10.1,10.1,0,0,0-.709,14.9L31.8,101.4a8.236,8.236,0,0,0,1.6,1.229,3.087,3.087,0,0,0,2.3,1.45,26.171,26.171,0,0,0,2.852.107H70.272a25.925,25.925,0,0,0,2.887-.117L87.038,114.7a5.379,5.379,0,0,0,7.339-.757L109.3,96.573a5.382,5.382,0,0,0-.45-7.482ZM38.518,97.958a2.946,2.946,0,0,1-2.336-.939L7.323,68.158a3.877,3.877,0,0,1-1.12-2.93,3.83,3.83,0,0,1,1.4-2.807,4.12,4.12,0,0,1,5.469.519L25.26,75.131a9.139,9.139,0,0,0-.993,4.1,9.264,9.264,0,0,0,9.249,9.261H59.743A3.113,3.113,0,0,0,64.8,86.048a5.755,5.755,0,0,0-.173-1.365,3.083,3.083,0,0,0-3.016-2.392H33.518a3.058,3.058,0,0,1-3.048-3.06,3.025,3.025,0,0,1,.9-2.151,3.149,3.149,0,0,1,2.283-.9c1.623-.068,6.44-.214,7.558-.251.866.007,1.75.024,2.651.042l.484.008c5.382.107,11.477.224,17.085-1.237,1.178-.309,2.308-.636,3.412-.956,4.929-1.431,8.819-2.561,13.771-.854C83.467,74.6,88.2,77.97,93.485,83.517l10.578,9.636L90.172,109.288l-14.3-10.95a3.1,3.1,0,0,0-2.587-.56,14.067,14.067,0,0,1-3.011.21H39.384Z" transform="translate(0 38.655)" fill="red"/>
    </g>
  </g>
</svg>
