<svg id="Raggruppa_42" data-name="Raggruppa 42" xmlns="http://www.w3.org/2000/svg" xmlns:xlink="http://www.w3.org/1999/xlink" width="28" height="20" viewBox="0 0 28 20">
  <defs>
    <clipPath id="clip-path">
      <rect id="Rettangolo_21" data-name="Rettangolo 21" width="28" height="20" fill="red"/>
    </clipPath>
  </defs>
  <g id="Raggruppa_41" data-name="Raggruppa 41" clip-path="url(#clip-path)">
    <path id="Tracciato_81" data-name="Tracciato 81" d="M28,3.3V16.7A3.3,3.3,0,0,1,24.7,20H3.3A3.3,3.3,0,0,1,0,16.7V3.3A3.28,3.28,0,0,1,.233,2.1l13.216,8.737a1,1,0,0,0,1.1,0l13.2-8.774A3.274,3.274,0,0,1,28,3.3M26.462.518A3.262,3.262,0,0,0,24.7,0H3.3A3.258,3.258,0,0,0,1.5.538L14,8.8Z" fill="red"/>
  </g>
</svg>
